<?xml version="1.0" standalone="no"?>
<!DOCTYPE svg PUBLIC "-//W3C//DTD SVG 20010904//EN"
 "http://www.w3.org/TR/2001/REC-SVG-20010904/DTD/svg10.dtd">
<svg version="1.0" xmlns="http://www.w3.org/2000/svg"
 width="1000.000000pt" height="1000.000000pt" viewBox="0 0 1000.000000 1000.000000"
 preserveAspectRatio="xMidYMid meet">
<metadata>
Created by potrace 1.11, written by Peter Selinger 2001-2013
</metadata>
<g transform="translate(0.000000,1000.000000) scale(0.100000,-0.100000)"
fill="#000000" stroke="none">
<path d="M3481 6750 c-11 -3 -52 -43 -91 -90 -40 -47 -81 -96 -94 -110 -12
-14 -40 -47 -61 -75 -22 -27 -43 -52 -46 -55 -5 -4 -91 -106 -279 -330 -20
-25 -77 -92 -126 -150 -49 -58 -123 -146 -164 -195 -41 -50 -79 -95 -85 -101
-27 -29 -77 -93 -77 -99 0 -4 90 -99 199 -212 323 -335 339 -352 553 -573 113
-116 255 -262 315 -324 61 -63 196 -202 300 -310 105 -109 239 -248 298 -309
130 -134 528 -544 612 -632 33 -34 106 -110 163 -167 l103 -106 108 112 c60
61 147 150 193 197 45 48 169 176 275 285 579 598 756 784 765 797 4 7 8 8 8
3 0 -5 10 4 22 20 13 15 54 60 93 100 64 65 401 413 570 589 39 40 165 170
280 290 116 119 216 224 223 231 12 12 11 17 -6 32 -10 9 -41 44 -68 77 -27
33 -63 75 -81 95 -17 19 -114 132 -215 251 -268 315 -271 319 -293 346 -11 14
-34 39 -51 57 -16 17 -37 40 -45 52 -7 12 -42 53 -77 91 -34 39 -72 84 -84 99
-13 16 -27 34 -33 40 -6 7 -24 27 -39 45 l-28 33 -1508 0 c-830 1 -1518 -1
-1529 -4z"/>
</g>
</svg>
